<svg width="52" height="72" viewBox="0 0 52 72" fill="none" xmlns="http://www.w3.org/2000/svg">
<path d="M38.4381 30.2056V52.2798H13.475V30.2056H3.48978L25.9566 3.20136L48.4234 30.2056H38.4381Z" fill="#4CD62B"/>
<path d="M49.342 32.6754C48.5901 32.6754 47.846 32.3657 47.3326 31.7662L25.9986 6.85026L4.6673 31.7662C3.75721 32.829 2.1289 32.9802 1.01916 32.118C-0.0905783 31.2484 -0.253923 29.6901 0.65098 28.6322L23.9892 1.37257C24.9771 0.220543 27.0176 0.220543 28.0055 1.37257L51.3463 28.6322C52.2538 29.6901 52.0878 31.2509 50.9781 32.118C50.4984 32.4921 49.9202 32.6754 49.342 32.6754Z" fill="#4CD62B"/>
<path d="M13.034 54.9729C11.6002 54.9729 10.4412 53.8655 10.4412 52.4955V30.1982C10.4412 28.8282 11.6002 27.7208 13.034 27.7208C14.4678 27.7208 15.6269 28.8282 15.6269 30.1982V52.4955C15.6269 53.8655 14.4678 54.9729 13.034 54.9729Z" fill="#4CD62B"/>
<path d="M38.9625 54.9727H13.034C11.6002 54.9727 10.4412 53.8653 10.4412 52.4952C10.4412 51.1252 11.6002 50.0178 13.034 50.0178H38.9625C40.3963 50.0178 41.5553 51.1252 41.5553 52.4952C41.5553 53.8653 40.3963 54.9727 38.9625 54.9727Z" fill="#4CD62B"/>
<path d="M38.963 54.9729C37.5291 54.9729 36.3701 53.8655 36.3701 52.4955V30.1982C36.3701 28.8282 37.5291 27.7208 38.963 27.7208C40.3968 27.7208 41.5558 28.8282 41.5558 30.1982V52.4955C41.5558 53.8655 40.3968 54.9729 38.963 54.9729Z" fill="#4CD62B"/>
<path d="M13.0348 32.6757H2.66085C1.22701 32.6757 0.0680084 31.5683 0.0680084 30.1982C0.0680084 28.8282 1.22701 27.7208 2.66085 27.7208H13.0348C14.4687 27.7208 15.6277 28.8282 15.6277 30.1982C15.6277 31.5683 14.4687 32.6757 13.0348 32.6757Z" fill="#4CD62B"/>
<path d="M49.3395 32.6757H38.963C37.5291 32.6757 36.3701 31.5683 36.3701 30.1982C36.3701 28.8282 37.5291 27.7208 38.963 27.7208H49.3395C50.7734 27.7208 51.9324 28.8282 51.9324 30.1982C51.9324 31.5683 50.7734 32.6757 49.3395 32.6757Z" fill="#4CD62B"/>
<path d="M30.95 35.2263H20.9648C19.5843 35.2263 18.4684 34.0934 18.4684 32.6919C18.4684 31.2904 19.5843 30.1575 20.9648 30.1575H30.95C32.3305 30.1575 33.4463 31.2904 33.4463 32.6919C33.4463 34.0934 32.3305 35.2263 30.95 35.2263Z" fill="#3FB023"/>
<path d="M25.9569 40.2927C24.5764 40.2927 23.4606 39.1598 23.4606 37.7583V27.6258C23.4606 26.2243 24.5764 25.0914 25.9569 25.0914C27.3373 25.0914 28.4532 26.2243 28.4532 27.6258V37.7583C28.4532 39.1598 27.3373 40.2927 25.9569 40.2927Z" fill="#3FB023"/>
<rect x="10.4229" y="58.2144" width="31.154" height="4.95128" rx="2.47564" fill="#4DD82B"/>
<rect x="10.4229" y="66.4074" width="31.154" height="4.95128" rx="2.47564" fill="#4DD82B"/>
</svg>
