<svg width="36" height="27" viewBox="0 0 36 27" fill="none" xmlns="http://www.w3.org/2000/svg">
<path d="M3.11828 3.61294C3.39405 1.54465 5.15833 0 7.24492 0C9.76275 0 11.7043 2.21763 11.3716 4.71337L8.88173 23.3871C8.60596 25.4553 6.84168 27 4.7551 27C2.23726 27 0.295691 24.7824 0.628457 22.2866L3.11828 3.61294Z" fill="#5965E0"/>
<path d="M14.277 9.97888C14.5535 7.91151 16.3173 6.36792 18.4031 6.36792C20.9215 6.36792 22.8632 8.58663 22.5293 11.0828L20.8831 23.389C20.6065 25.4564 18.8427 27 16.7569 27C14.2385 27 12.2968 24.7813 12.6307 22.2851L14.277 9.97888Z" fill="#5965E0"/>
<path d="M27.105 3.59281C27.3887 1.53381 29.1483 0 31.2268 0C33.7504 0 35.693 2.22855 35.3485 4.72858L32.775 23.4072C32.4913 25.4662 30.7317 27 28.6533 27C26.1296 27 24.1871 24.7714 24.5315 22.2714L27.105 3.59281Z" fill="#5965E0"/>
</svg>
