<svg width="355" height="66" viewBox="0 0 355 66" fill="none" xmlns="http://www.w3.org/2000/svg">
<path d="M7.92275 9.16291C8.65501 3.90969 13.1475 0 18.4515 0C24.9062 0 29.8714 5.70532 28.9803 12.0982L22.7439 56.8371C22.0117 62.0903 17.5192 66 12.2152 66C5.76048 66 0.795288 60.2947 1.68642 53.9018L7.92275 9.16291Z" fill="white"/>
<path d="M36.4393 24.7236C37.1736 19.4729 41.6649 15.566 46.9667 15.566C53.4229 15.566 58.3884 21.2742 57.4941 27.6682L53.4141 56.8424C52.6797 62.0932 48.1885 66 42.8866 66C36.4304 66 31.465 60.2918 32.3592 53.8978L36.4393 24.7236Z" fill="white"/>
<path d="M69.2213 9.10908C69.9743 3.88083 74.4542 0 79.7364 0C86.2064 0 91.174 5.73439 90.2516 12.1383L83.8054 56.8909C83.0523 62.1192 78.5724 66 73.2902 66C66.8202 66 61.8527 60.2656 62.7751 53.8617L69.2213 9.10908Z" fill="white"/>
<path d="M128.345 49H134.386L141.736 32.4126H142.072L143.926 49H149.95L160.992 24.4545H155.08L147.953 41.6172H147.713L146.179 24.4545H140.346L133.059 41.7131H132.835L131.397 24.4545H125.501L128.345 49ZM171.084 49.4794C178.179 49.4794 183.516 44.4936 184.763 36.983C186.009 29.2805 182.238 24.1349 174.983 24.1349C167.872 24.1349 162.535 29.1367 161.304 36.6793C160.058 44.3338 163.813 49.4794 171.084 49.4794ZM171.547 44.8452C167.664 44.8452 166.386 41.3775 167.105 36.951C167.84 32.3807 170.493 28.7212 174.52 28.7212C178.387 28.7212 179.681 32.2369 178.962 36.6474C178.227 41.2337 175.574 44.8452 171.547 44.8452ZM187.659 49H193.444L195.825 34.57C196.368 31.4538 199.069 29.2486 202.233 29.2486C203.24 29.2486 204.406 29.4084 204.902 29.5842L205.797 24.2628C205.237 24.1509 204.39 24.103 203.735 24.103C200.923 24.103 198.27 25.701 196.928 28.5455H196.672L197.359 24.4545H191.75L187.659 49ZM205.545 49H211.33L212.704 40.7383L215.181 38.5011L220.95 49H227.869L220.119 35.0653L231.401 24.4545H224.641L214.142 34.3143H213.775L216.763 16.2727H210.978L205.545 49ZM244.233 49H250.034L252.527 34.0746C253.006 31.0703 255.371 29.0089 257.864 29.0089C260.325 29.0089 261.699 30.6388 261.316 33.1797L258.663 49H264.336L266.909 33.6911C267.34 30.9105 269.306 29.0089 272.086 29.0089C274.435 29.0089 276.049 30.3672 275.586 33.4194L272.965 49H278.75L281.498 32.5245C282.409 27.0593 279.725 24.1349 275.25 24.1349C271.671 24.1349 268.635 25.8928 267.116 28.6254H266.861C266.397 25.8448 264.272 24.1349 260.98 24.1349C257.688 24.1349 254.956 25.8288 253.469 28.6254H253.166L253.869 24.4545H248.324L244.233 49ZM295.405 49.4794C302.5 49.4794 307.838 44.4936 309.084 36.983C310.331 29.2805 306.559 24.1349 299.304 24.1349C292.193 24.1349 286.856 29.1367 285.625 36.6793C284.379 44.3338 288.134 49.4794 295.405 49.4794ZM295.869 44.8452C291.985 44.8452 290.707 41.3775 291.426 36.951C292.161 32.3807 294.814 28.7212 298.841 28.7212C302.708 28.7212 304.002 32.2369 303.283 36.6474C302.548 41.2337 299.896 44.8452 295.869 44.8452ZM311.981 49H317.765L320.146 34.57C320.69 31.4538 323.39 29.2486 326.554 29.2486C327.561 29.2486 328.728 29.4084 329.223 29.5842L330.118 24.2628C329.559 24.1509 328.712 24.103 328.057 24.103C325.244 24.103 322.591 25.701 321.249 28.5455H320.993L321.68 24.4545H316.071L311.981 49ZM339.658 49.4794C345.395 49.4794 349.758 46.6829 351.515 42.4162L346.226 41.8089C345.075 43.9023 343.03 44.973 340.489 44.973C336.59 44.973 334.592 42.9915 335.312 38.3892L335.328 38.3093H352.442L352.714 36.5355C354.152 27.9382 349.614 24.1349 343.573 24.1349C336.558 24.1349 331.093 29.2965 329.846 36.8711C328.552 44.5575 332.275 49.4794 339.658 49.4794ZM336.015 34.4102C336.67 31.4698 339.594 28.6413 342.918 28.6413C346.258 28.6413 348.064 31.0703 347.504 34.4102H336.015Z" fill="white"/>
<path d="M235.064 49.3516C236.934 49.3516 238.644 47.8015 238.772 45.8359C238.884 43.9503 237.333 42.3842 235.448 42.3842C233.514 42.3842 231.82 43.9183 231.74 45.8359C231.645 47.8015 233.099 49.3516 235.064 49.3516Z" fill="#4CD62B"/>
</svg>
